#!OML:ASF H:\Punching\Project 1\Capture day 1\Session 1\female.ASF
:FULLY-SPECIFIED
:DEGREES
1146
root 0.66027 8.50397 -0.505065 3.95043 -14.1323 6.76258
lowerback 36.4433 2.8103 -1.23929
upperback 2.7973 2.9338 -0.465182
thorax -15.3342 1.30445 -1.1516
lowerneck -15.646 -5.07098 2.16032
upperneck 12.3331 -7.47869 0.959077
head 6.26278 -3.42718 -0.771242
rclavicle -4.57205e-014 7.15625e-015
rhumerus 59.5087 7.40577 -74.509
rradius 35.7671
rwrist -17.0868
rhand -19.0574 -23.9625
rfingers 7.12502
rthumb 7.24977 -53.8183
lclavicle -4.57205e-014 7.15625e-015
lhumerus 39.0791 -33.0275 72.5408
lradius 131.637
lwrist 16.64
lhand -21.2564 8.31773
lfingers 7.12502
lthumb 5.12676 38.2357
rfemur -36.0093 -52.3001 -48.2267
rtibia 124.845
rfoot -46.9462 22.7569
rtoes -41.6044
lfemur -95.9185 23.0868 -22.8671
ltibia 112.901
lfoot -20.6754 -5.23854
ltoes -7.21143
1147
root 0.650008 8.50891 -0.502313 4.04276 -14.0898 6.77977
lowerback 36.4019 2.75028 -1.45386
upperback 2.71719 2.76811 -0.497239
thorax -15.4205 1.24519 -0.999716
lowerneck -15.8907 -4.54925 2.62685
upperneck 12.9089 -6.87302 0.76061
head 6.47002 -3.11363 -0.866604
rclavicle -9.14409e-015 1.82882e-014
rhumerus 58.8043 7.55264 -74.2483
rradius 36.862
rwrist -13.5954
rhand -17.9178 -23.7599
rfingers 7.12502
rthumb 8.34969 -53.5749
lclavicle -9.14409e-015 1.82882e-014
lhumerus 38.9931 -32.8756 72.5401
lradius 131.814
lwrist 16.4905
lhand -21.162 8.1501
lfingers 7.12502
lthumb 5.21789 38.0659
rfemur -36.0709 -52.2532 -48.0831
rtibia 124.908
rfoot -46.9421 22.5059
rtoes -41.5902
lfemur -96.0058 23.202 -22.9698
ltibia 112.843
lfoot -20.6614 -5.40099
ltoes -7.08255
1148
root 0.640358 8.51694 -0.498215 4.16663 -14.036 6.74158
lowerback 36.3049 2.6497 -1.73975
upperback 2.65146 2.53345 -0.472281
thorax -15.4718 1.16315 -0.714011
lowerneck -16.1077 -3.93195 3.16715
upperneck 13.5282 -6.14384 0.484841
head 6.68868 -2.74315 -0.984648
rclavicle -4.77083e-015 2.3059e-014
rhumerus 57.6392 7.91788 -73.8607
rradius 39.2419
rwrist -10.6163
rhand -16.1677 -23.6442
rfingers 7.12502
rthumb 10.0384 -53.3848
lclavicle -4.77083e-015 2.3059e-014
lhumerus 38.8842 -32.6291 72.5573
lradius 132.013
lwrist 16.3634
lhand -21.0759 8.00185
lfingers 7.12502
lthumb 5.30104 37.9155
rfemur -36.1713 -52.1614 -47.8046
rtibia 124.944
rfoot -46.8786 22.2494
rtoes -41.5812
lfemur -96.1069 23.3036 -23.0256
ltibia 112.778
lfoot -20.6334 -5.56326
ltoes -6.92197
1149
root 0.631823 8.52778 -0.493258 4.32123 -13.9745 6.63782
lowerback 36.1704 2.50019 -2.06051
upperback 2.59612 2.23159 -0.403346
thorax -15.4953 1.05626 -0.329868
lowerneck -16.2915 -3.22347 3.79012
upperneck 14.185 -5.29679 0.128878
head 6.91885 -2.31889 -1.12803
rclavicle -6.75868e-015 -7.15625e-015
rhumerus 56.1146 8.49817 -73.4197
rradius 42.7715
rwrist -8.75955
rhand -14.1686 -23.5568
rfingers 7.12502
rthumb 11.9666 -53.1947
lclavicle -6.75868e-015 -7.15625e-015
lhumerus 38.7752 -32.3271 72.5258
lradius 132.232
lwrist 16.1738
lhand -21.0953 8.01811
lfingers 7.12502
lthumb 5.28231 37.9323
rfemur -36.3266 -52.0168 -47.3733
rtibia 124.948
rfoot -46.7646 21.99
rtoes -41.5895
lfemur -96.2222 23.3914 -23.0197
ltibia 112.71
lfoot -20.5899 -5.72512
ltoes -6.73732
1150
root 0.624902 8.54113 -0.486925 4.4963 -13.9191 6.46043
lowerback 36.0047 2.30154 -2.37794
upperback 2.56446 1.87551 -0.302633
thorax -15.474 0.926917 0.11281
lowerneck -16.4386 -2.43168 4.49942
upperneck 14.8413 -4.34003 -0.309645
head 7.15142 -1.84608 -1.29834
rclavicle -9.54166e-015 7.95139e-015
rhumerus 54.3555 9.27822 -72.9751
rradius 47.2696
rwrist -8.44687
rhand -12.4606 -23.5852
rfingers 7.12502
rthumb 13.6131 -53.1201
lclavicle -9.54166e-015 7.95139e-015
lhumerus 38.688 -31.9909 72.4058
lradius 132.475
lwrist 15.9147
lhand -21.2698 8.24394
lfingers 7.12502
lthumb 5.11382 38.1622
rfemur -36.5498 -51.7836 -46.7698
rtibia 124.911
rfoot -46.6001 21.7478
rtoes -41.6196
lfemur -96.3395 23.4838 -22.9398
ltibia 112.648
lfoot -20.5425 -5.89131
ltoes -6.53474
1151
root 0.619854 8.55713 -0.47879 4.67557 -13.8886 6.20298
lowerback 35.8322 2.06415 -2.65381
upperback 2.56676 1.49069 -0.182756
thorax -15.4029 0.782366 0.567153
lowerneck -16.575 -1.57823 5.28168
upperneck 15.4788 -3.30039 -0.823367
head 7.38898 -1.33824 -1.49413
rclavicle 2.14687e-014 -1.98785e-014
rhumerus 52.4518 10.2164 -72.5466
rradius 52.5594
rwrist -9.85979
rhand -11.549 -23.9461
rfingers 7.12502
rthumb 14.4916 -53.42
lclavicle 2.14687e-014 -1.98785e-014
lhumerus 38.6525 -31.644 72.1695
lradius 132.74
lwrist 15.605
lhand -21.6026 8.66736
lfingers 7.12502
lthumb 4.79254 38.5932
rfemur -36.8604 -51.4203 -45.9645
rtibia 124.82
rfoot -46.3965 21.5134
rtoes -41.675
lfemur -96.4334 23.6066 -22.772
ltibia 112.596
lfoot -20.5022 -6.06769
ltoes -6.30589
1152
root 0.617114 8.57567 -0.467915 4.85051 -13.8911 5.88575
lowerback 35.655 1.79112 -2.86208
upperback 2.60414 1.08656 -0.0712447
thorax -15.2808 0.623443 0.983837
lowerneck -16.679 -0.683406 6.12998
upperneck 16.0614 -2.20444 -1.39143
head 7.61943 -0.807541 -1.7094
rclavicle -2.54444e-014 1.11319e-014
rhumerus 50.4398 11.2597 -72.1742
rradius 58.4531
rwrist -12.9243
rhand -11.757 -24.6824
rfingers 7.12502
rthumb 14.2912 -54.1706
lclavicle -2.54444e-014 1.11319e-014
lhumerus 38.6622 -31.2901 71.8185
lradius 133.024
lwrist 15.3233
lhand -22.0149 9.17722
lfingers 7.12502
lthumb 4.39434 39.1116
rfemur -37.2367 -50.9103 -44.9996
rtibia 124.664
rfoot -46.1698 21.2927
rtoes -41.7599
lfemur -96.4858 23.7619 -22.5338
ltibia 112.562
lfoot -20.4914 -6.24385
ltoes -6.06604
1153
root 0.616456 8.59686 -0.45471 5.02153 -13.9256 5.5179
lowerback 35.4909 1.49649 -3.00024
upperback 2.66482 0.680709 0.0304081
thorax -15.1306 0.457332 1.35093
lowerneck -16.7241 0.22862 7.01772
upperneck 16.5572 -1.0779 -1.99927
head 7.82971 -0.267016 -1.93727
rclavicle -4.37326e-015 -2.38542e-015
rhumerus 48.3109 12.3261 -71.895
rradius 64.7545
rwrist -17.3132
rhand -12.9248 -25.6554
rfingers 7.12502
rthumb 13.1657 -55.2197
lclavicle -4.37326e-015 -2.38542e-015
lhumerus 38.6966 -30.9225 71.4026
lradius 133.31
lwrist 15.1376
lhand -22.431 9.6634
lfingers 7.12502
lthumb 3.99258 39.6057
rfemur -37.659 -50.2642 -43.9025
rtibia 124.443
rfoot -45.9259 21.0909
rtoes -41.8749
lfemur -96.497 23.9483 -22.2363
ltibia 112.541
lfoot -20.5097 -6.41572
ltoes -5.81679
1154
root 0.617808 8.62039 -0.439394 5.19404 -13.974 5.13149
lowerback 35.3355 1.18282 -3.08078
upperback 2.73792 0.269938 0.113204
thorax -14.965 0.283411 1.66631
lowerneck -16.6851 1.13995 7.92657
upperneck 16.9488 0.0599562 -2.63256
head 8.01037 0.274563 -2.17214
rclavicle 1.78906e-014 -6.36111e-015
rhumerus 46.0511 13.3181 -71.7635
rradius 71.2455
rwrist -22.5705
rhand -14.5732 -26.5435
rfingers 7.12502
rthumb 11.5764 -56.2037
lclavicle 1.78906e-014 -6.36111e-015
lhumerus 38.7309 -30.5235 70.9698
lradius 133.582
lwrist 15.1042
lhand -22.779 10.0242
lfingers 7.12502
lthumb 3.65647 39.9726
rfemur -38.0688 -49.5285 -42.7671
rtibia 124.16
rfoot -45.6923 20.9113
rtoes -42.0231
lfemur -96.4764 24.1332 -21.913
ltibia 112.526
lfoot -20.5567 -6.56846
ltoes -5.56797
1155
root 0.620924 8.64603 -0.422129 5.37223 -14.0239 4.746
lowerback 35.1985 0.857248 -3.12481
upperback 2.80588 -0.145027 0.180079
thorax -14.81 0.104112 1.94411
lowerneck -16.5505 2.0378 8.8485
upperneck 17.2434 1.19599 -3.29096
head 8.16143 0.811373 -2.41474
rclavicle -9.74045e-015 -1.59028e-015
rhumerus 43.6345 14.1597 -71.8055
rradius 77.7327
rwrist -28.2492
rhand -16.1626 -27.0924
rfingers 7.12502
rthumb 10.0433 -56.8328
lclavicle -9.74045e-015 -1.59028e-015
lhumerus 38.737 -30.0826 70.5722
lradius 133.822
lwrist 15.2211
lhand -22.9916 10.2154
lfingers 7.12502
lthumb 3.45121 40.1673
rfemur -38.4288 -48.7467 -41.6511
rtibia 123.82
rfoot -45.4757 20.7597
rtoes -42.2032
lfemur -96.434 24.2974 -21.5869
ltibia 112.511
lfoot -20.628 -6.69308
ltoes -5.3307
1156
root 0.625214 8.67333 -0.403771 5.56429 -14.0593 4.38185
lowerback 35.0795 0.531148 -3.17423
upperback 2.85821 -0.56326 0.247731
thorax -14.678 -0.0765754 2.22503
lowerneck -16.3324 2.91502 9.76525
upperneck 17.4591 2.32575 -3.97623
head 8.2908 1.34099 -2.66396
rclavicle -3.22031e-014 4.37326e-015
rhumerus 41.0567 14.8109 -71.9826
rradius 84.0282
rwrist -33.9302
rhand -17.36 -27.2003
rfingers 7.12502
rthumb 8.88796 -56.9932
lclavicle -3.22031e-014 4.37326e-015
lhumerus 38.6941 -29.5936 70.2621
lradius 134.017
lwrist 15.4659
lhand -23.0518 10.2198
lfingers 7.12502
lthumb 3.39308 40.1725
rfemur -38.7173 -47.9768 -40.6068
rtibia 123.44
rfoot -45.287 20.6364
rtoes -42.4147
lfemur -96.3893 24.4198 -21.2824
ltibia 112.489
lfoot -20.7101 -6.78543
ltoes -5.10456
1157
root 0.630429 8.70199 -0.383783 5.76242 -14.0762 4.05683
lowerback 34.9843 0.207659 -3.25997
upperback 2.8953 -0.99288 0.315834
thorax -14.5696 -0.260186 2.52923
lowerneck -16.049 3.77185 10.6847
upperneck 17.6062 3.44526 -4.68055
head 8.40493 1.86355 -2.91932
rclavicle -1.03368e-014 -3.49861e-014
rhumerus 38.347 15.256 -72.272
rradius 90.0087
rwrist -39.3014
rhand -17.8908 -26.9147
rfingers 7.12502
rthumb 8.37576 -56.7286
lclavicle -1.03368e-014 -3.49861e-014
lhumerus 38.6068 -29.0856 70.0089
lradius 134.168
lwrist 15.6847
lhand -23.0269 10.1785
lfingers 7.12502
lthumb 3.41713 40.1309
rfemur -38.9159 -47.2426 -39.669
rtibia 123.025
rfoot -45.122 20.5317
rtoes -42.6431
lfemur -96.3347 24.4921 -21.015
ltibia 112.459
lfoot -20.8088 -6.84022
ltoes -4.89859
1158
root 0.636098 8.73197 -0.361955 5.95947 -14.0782 3.77669
lowerback 34.9128 -0.105049 -3.39474
upperback 2.92023 -1.42824 0.384565
thorax -14.4802 -0.443523 2.86166
lowerneck -15.718 4.60575 11.6054
upperneck 17.7017 4.5475 -5.39018
head 8.51176 2.37767 -3.17686
rclavicle 3.19049e-014 6.75868e-015
rhumerus 35.5409 15.5111 -72.6177
rradius 95.5732
rwrist -44.063
rhand -17.7494 -26.2835
rfingers 7.12502
rthumb 8.5122 -56.0919
lclavicle 3.19049e-014 6.75868e-015
lhumerus 38.4788 -28.5794 69.8086
lradius 134.282
lwrist 15.8151
lhand -22.9627 10.1505
lfingers 7.12502
lthumb 3.47914 40.1018
rfemur -39.0247 -46.5487 -38.8438
rtibia 122.582
rfoot -44.9442 20.4902
rtoes -42.859
lfemur -96.2621 24.5228 -20.7918
ltibia 112.419
lfoot -20.9251 -6.85955
ltoes -4.71404
1159
root 0.641341 8.76355 -0.33893 6.14859 -14.077 3.52402
lowerback 34.8852 -0.390538 -3.56431
upperback 2.9285 -1.84329 0.457597
thorax -14.4243 -0.615286 3.20849
lowerneck -15.3395 5.40252 12.5125
upperneck 17.7497 5.61389 -6.08922
head 8.6095 2.87573 -3.4312
rclavicle -4.39811e-014 1.96797e-014
rhumerus 32.6557 15.6104 -72.9512
rradius 100.674
rwrist -47.9475
rhand -17.0815 -25.3865
rfingers 7.12502
rthumb 9.15674 -55.1677
lclavicle -4.39811e-014 1.96797e-014
lhumerus 38.3242 -28.1117 69.6683
lradius 134.366
lwrist 15.8598
lhand -22.9001 10.1635
lfingers 7.12502
lthumb 3.53959 40.1139
rfemur -39.0719 -45.884 -38.0811
rtibia 122.12
rfoot -44.7716 20.4704
rtoes -43.0684
lfemur -96.1665 24.5442 -20.5986
ltibia 112.363
lfoot -21.044 -6.86238
ltoes -4.53083
